<svg viewBox="0 0 256 256" fill="none" xmlns="http://www.w3.org/2000/svg" height="40" width="40" ><path d="M219.976 47.3392C219.964 46.7922 219.944 46.2452 219.923 45.6962C219.901 45.0836 219.882 44.4731 219.85 43.8586C219.786 42.6253 219.706 41.3859 219.602 40.1423C219.437 38.149 217.856 36.5675 215.867 36.3995C214.626 36.295 213.393 36.2172 212.164 36.1516C211.541 36.1188 210.923 36.1004 210.306 36.0778C209.77 36.0594 209.233 36.0369 208.699 36.0266C207.806 36.0061 206.918 36 206.033 36C205.886 36 205.737 36 205.589 36.002C187.95 36.0881 171.758 40.4271 155.41 49.3714C155.122 49.5312 154.833 49.6808 154.545 49.8385C154.443 49.8959 154.343 49.945 154.241 50.0024C154.218 50.0147 154.2 50.0352 154.177 50.0475C140.774 57.5332 127.393 68.098 113.543 81.9754C111.969 83.5529 110.43 85.1508 108.907 86.7569L81.9932 88.8076C81.2061 88.867 80.4537 89.1538 79.8261 89.6312L37.614 121.821C36.2708 122.846 35.6922 124.591 36.1604 126.216C36.6265 127.84 38.0413 129.01 39.7218 129.164L79.3293 132.747L91.87 145.313C87.4254 146.331 82.8969 148.826 79.0185 152.711C76.696 155.04 74.8314 157.65 73.4657 160.502C71.6809 164.289 67.7617 174.043 63.6114 184.37L61.5853 189.408C60.972 190.932 61.3257 192.675 62.487 193.837C63.2679 194.622 64.3147 195.037 65.3799 195.037C65.893 195.037 66.4123 194.939 66.9091 194.738L72.1164 192.634C82.3387 188.508 91.9947 184.61 95.7831 182.821C98.6045 181.461 101.211 179.593 103.532 177.268C107.408 173.383 109.896 168.846 110.912 164.392L123.081 176.585L126.657 216.271C126.808 217.955 127.977 219.373 129.599 219.84C129.973 219.949 130.353 220 130.729 220C131.985 220 133.197 219.42 133.984 218.384L166.105 176.088C166.581 175.459 166.867 174.705 166.926 173.916L168.912 147.745C170.664 146.083 172.4 144.395 174.119 142.674C187.978 128.787 198.528 115.372 206 101.933C206.009 101.919 206.021 101.907 206.029 101.892C206.066 101.827 206.096 101.763 206.133 101.698C206.475 101.081 206.8 100.464 207.127 99.8456C215.728 83.77 219.907 67.8153 219.997 50.4756C219.999 50.3056 219.999 50.1376 219.999 49.9676C220.003 49.0969 219.997 48.2201 219.976 47.3392ZM167.699 112.615C164.475 115.845 160.186 117.628 155.623 117.628C151.061 117.628 146.772 115.848 143.546 112.615C136.887 105.94 136.887 95.0846 143.546 88.4102C150.209 81.7378 161.045 81.7419 167.699 88.4102C170.925 91.6409 172.704 95.9389 172.704 100.511C172.704 105.084 170.928 109.382 167.699 112.615Z" fill="black"></path>
</svg>